<mxfile host="65bd71144e" pages="2">
    <diagram id="VA1PurThvRoqOB0wc0f8" name="main">
        <mxGraphModel dx="735" dy="642" grid="1" gridSize="10" guides="1" tooltips="1" connect="1" arrows="1" fold="1" page="1" pageScale="1" pageWidth="827" pageHeight="1169" background="none" math="0" shadow="0">
            <root>
                <mxCell id="0"/>
                <mxCell id="1" parent="0"/>
                <mxCell id="QieMygtgPGnuNa3xphcR-5" value="" style="whiteSpace=wrap;html=1;aspect=fixed;sketch=0;fillColor=none;" parent="1" vertex="1">
                    <mxGeometry x="40" y="40" width="480" height="480" as="geometry"/>
                </mxCell>
                <mxCell id="QieMygtgPGnuNa3xphcR-12" value="" style="endArrow=none;dashed=1;html=1;rounded=0;exitX=1;exitY=1;exitDx=0;exitDy=0;entryX=0;entryY=0;entryDx=0;entryDy=0;" parent="1" source="QieMygtgPGnuNa3xphcR-5" target="QieMygtgPGnuNa3xphcR-5" edge="1">
                    <mxGeometry width="50" height="50" relative="1" as="geometry">
                        <mxPoint x="509.8399999999999" y="509.8399999999999" as="sourcePoint"/>
                        <mxPoint x="110" y="110" as="targetPoint"/>
                    </mxGeometry>
                </mxCell>
                <mxCell id="QieMygtgPGnuNa3xphcR-18" value="" style="ellipse;whiteSpace=wrap;html=1;aspect=fixed;sketch=0;fillColor=none;" parent="1" vertex="1">
                    <mxGeometry x="70" y="70" width="420" height="420" as="geometry"/>
                </mxCell>
                <mxCell id="QieMygtgPGnuNa3xphcR-11" value="" style="endArrow=none;dashed=1;html=1;rounded=0;exitX=1;exitY=0;exitDx=0;exitDy=0;" parent="1" source="QieMygtgPGnuNa3xphcR-5" edge="1">
                    <mxGeometry width="50" height="50" relative="1" as="geometry">
                        <mxPoint x="110" y="450" as="sourcePoint"/>
                        <mxPoint x="40" y="520" as="targetPoint"/>
                    </mxGeometry>
                </mxCell>
                <mxCell id="QieMygtgPGnuNa3xphcR-6" value="" style="ellipse;whiteSpace=wrap;html=1;aspect=fixed;sketch=0;fillColor=none;" parent="1" vertex="1">
                    <mxGeometry x="40" y="40" width="480" height="480" as="geometry"/>
                </mxCell>
                <mxCell id="QieMygtgPGnuNa3xphcR-2" value="" style="triangle;whiteSpace=wrap;html=1;sketch=0;fillColor=none;direction=north;" parent="1" vertex="1">
                    <mxGeometry x="120" y="110" width="160" height="160" as="geometry"/>
                </mxCell>
                <mxCell id="QieMygtgPGnuNa3xphcR-4" value="" style="ellipse;whiteSpace=wrap;html=1;aspect=fixed;sketch=0;fillColor=none;" parent="1" vertex="1">
                    <mxGeometry x="290" y="290" width="150" height="150" as="geometry"/>
                </mxCell>
                <mxCell id="QieMygtgPGnuNa3xphcR-7" value="" style="whiteSpace=wrap;html=1;aspect=fixed;sketch=0;fillColor=none;" parent="1" vertex="1">
                    <mxGeometry x="130" y="290" width="140" height="140" as="geometry"/>
                </mxCell>
                <mxCell id="QieMygtgPGnuNa3xphcR-8" value="" style="ellipse;whiteSpace=wrap;html=1;aspect=fixed;sketch=0;fillColor=none;" parent="1" vertex="1">
                    <mxGeometry x="290" y="120" width="150" height="150" as="geometry"/>
                </mxCell>
            </root>
        </mxGraphModel>
    </diagram>
    <diagram id="Po0gWq3O9zI7JbLjkZMr" name="logo">
        <mxGraphModel dx="735" dy="642" grid="1" gridSize="10" guides="1" tooltips="1" connect="1" arrows="1" fold="1" page="1" pageScale="1" pageWidth="827" pageHeight="1169" math="0" shadow="0">
            <root>
                <mxCell id="Ydqj-7vl5uCmMeCQXlhy-0"/>
                <mxCell id="Ydqj-7vl5uCmMeCQXlhy-1" parent="Ydqj-7vl5uCmMeCQXlhy-0"/>
                <mxCell id="F8FmVPcN1KGjMFOAayiO-9" value="" style="whiteSpace=wrap;html=1;aspect=fixed;sketch=0;strokeColor=none;" parent="Ydqj-7vl5uCmMeCQXlhy-1" vertex="1">
                    <mxGeometry x="40" y="40" width="480" height="480" as="geometry"/>
                </mxCell>
                <mxCell id="F8FmVPcN1KGjMFOAayiO-14" value="" style="triangle;whiteSpace=wrap;html=1;sketch=0;fillColor=#EEE170;direction=north;strokeColor=none;" parent="Ydqj-7vl5uCmMeCQXlhy-1" vertex="1">
                    <mxGeometry x="120" y="110" width="160" height="160" as="geometry"/>
                </mxCell>
                <mxCell id="F8FmVPcN1KGjMFOAayiO-15" value="" style="ellipse;whiteSpace=wrap;html=1;aspect=fixed;sketch=0;fillColor=#D25735;strokeColor=none;" parent="Ydqj-7vl5uCmMeCQXlhy-1" vertex="1">
                    <mxGeometry x="290" y="290" width="150" height="150" as="geometry"/>
                </mxCell>
                <mxCell id="F8FmVPcN1KGjMFOAayiO-16" value="" style="whiteSpace=wrap;html=1;aspect=fixed;sketch=0;fillColor=#54A258;strokeColor=none;" parent="Ydqj-7vl5uCmMeCQXlhy-1" vertex="1">
                    <mxGeometry x="130" y="290" width="140" height="140" as="geometry"/>
                </mxCell>
                <mxCell id="F8FmVPcN1KGjMFOAayiO-17" value="" style="ellipse;whiteSpace=wrap;html=1;aspect=fixed;sketch=0;fillColor=#87B6F9;strokeColor=none;" parent="Ydqj-7vl5uCmMeCQXlhy-1" vertex="1">
                    <mxGeometry x="290" y="120" width="150" height="150" as="geometry"/>
                </mxCell>
            </root>
        </mxGraphModel>
    </diagram>
</mxfile>